<svg width="80" height="80" viewBox="0 0 80 80" fill="none" xmlns="http://www.w3.org/2000/svg">
<g clip-path="url(#clip0_7_4)">
<path d="M72.5 31.465V12.838C74.941 11.852 76.667 9.466 76.667 6.666C76.667 2.981 73.685 0 70 0C66.321 0 63.333 2.981 63.333 6.666C63.333 9.466 65.059 11.849 67.5 12.838V25.247C60.332 17.881 50.664 13.333 40 13.333C29.336 13.333 19.672 17.881 12.5 25.25V12.838C14.941 11.849 16.666 9.466 16.666 6.666C16.666 2.981 13.684 0 10 0C6.32 0 3.334 2.981 3.334 6.666C3.334 9.466 5.059 11.849 7.5 12.838V31.468C2.798 38.57 0 47.256 0 56.666C0 69.557 17.91 80 40 80C62.097 80 80 69.557 80 56.666C80 47.252 77.2 38.57 72.5 31.465ZM40 63.332C26.187 63.332 15 60.348 15 56.666C15 48.853 16.908 41.783 20 36.666C33.346 41.275 47.656 40.943 60 36.666C63.093 41.783 65 48.854 65 56.666C65 60.348 53.806 63.332 40 63.332Z" fill="#3858E9"/>
<rect x="14.127" y="35.9921" width="52.3272" height="27.588" rx="9" fill="#D9D9D9"/>
<path d="M56.667 49.787C56.667 52.092 54.805 53.953 52.5 53.953C50.195 53.953 48.333 52.092 48.333 49.787C48.333 47.484 50.195 45.619 52.5 45.619C54.805 45.619 56.667 47.484 56.667 49.787Z" fill="#3858E9"/>
<path d="M31.666 49.787C31.666 52.092 29.803 53.953 27.5 53.953C25.197 53.953 23.334 52.092 23.334 49.787C23.334 47.484 25.197 45.619 27.5 45.619C29.803 45.619 31.666 47.484 31.666 49.787Z" fill="#3858E9"/>
</g>
<defs>
<clipPath id="clip0_7_4">
<rect width="80" height="80" fill="white"/>
</clipPath>
</defs>
</svg>
